<svg width="18" height="18" viewBox="0 0 18 18" fill="none" xmlns="http://www.w3.org/2000/svg">
<path d="M8.04954 14.8429C8.27448 15.0571 8.63053 15.0485 8.8448 14.8235C9.05906 14.5986 9.05041 14.2425 8.82546 14.0283L4.1369 9.5623L15.1875 9.56229C15.4982 9.56229 15.75 9.31045 15.75 8.99979C15.75 8.68913 15.4982 8.43729 15.1875 8.43729L4.13683 8.43729L8.82546 3.97127C9.0504 3.757 9.05906 3.40095 8.8448 3.176C8.63053 2.95106 8.27448 2.9424 8.04954 3.15667L2.48534 8.4567C2.35864 8.57738 2.28368 8.73131 2.26045 8.89134C2.25359 8.92643 2.25 8.96269 2.25 8.9998C2.25 9.03697 2.25361 9.0733 2.26049 9.10846C2.28377 9.26839 2.35872 9.42221 2.48534 9.54282L8.04954 14.8429Z" fill="#BD9BE9"/>
</svg>
