<svg width="18" height="18" viewBox="0 0 18 18" fill="none" xmlns="http://www.w3.org/2000/svg">
<path d="M9.95046 14.8429C9.72552 15.0571 9.36947 15.0485 9.1552 14.8235C8.94094 14.5986 8.94959 14.2425 9.17454 14.0283L13.8631 9.5623L2.8125 9.56229C2.50184 9.56229 2.25 9.31045 2.25 8.99979C2.25 8.68913 2.50184 8.43729 2.8125 8.43729L13.8632 8.43729L9.17454 3.97127C8.9496 3.757 8.94094 3.40095 9.1552 3.176C9.36947 2.95106 9.72552 2.9424 9.95046 3.15667L15.5147 8.4567C15.6414 8.57738 15.7163 8.73131 15.7396 8.89134C15.7464 8.92643 15.75 8.96269 15.75 8.9998C15.75 9.03697 15.7464 9.0733 15.7395 9.10846C15.7162 9.26839 15.6413 9.42221 15.5147 9.54282L9.95046 14.8429Z" fill="#242527"/>
</svg>
